<svg width="180" height="58" viewBox="0 0 180 58" fill="none" xmlns="http://www.w3.org/2000/svg">
<g clip-path="url(#clip0_1082_277)">
<path d="M39.9673 25.0149L21.7272 0.5C13.3998 7.46888 15.87 15.8436 18.1461 19.1599L27.7437 32.1551C30.876 39.0478 25.7381 42.5164 22.7777 43.3891C28.8896 44.6077 31.1179 51.5767 31.4681 54.9086C46.6331 46.7975 43.4529 31.5998 39.9673 25.0149Z" fill="url(#paint0_linear_1082_277)"/>
<path d="M1.10365 42.6277C-2.63988 32.2695 4.03226 21.9685 7.83627 18.1128C9.69851 19.16 12.0382 21.6829 13.9004 25.3007C15.3902 28.1948 14.744 33.0757 14.2346 35.1543C14.1964 42.7324 20.1714 43.7384 23.1637 43.294C29.7339 44.6651 31.6099 51.4497 31.7531 54.766C26.9783 58.0031 19.6303 57.5746 16.5266 56.8605C12.9454 56.4322 4.84719 52.9858 1.10365 42.6277Z" fill="url(#paint1_linear_1082_277)"/>
<path d="M55.8012 25.253H59.0602C61.7666 25.253 62.0715 25.652 62.0715 29.243C62.0715 32.834 61.7666 33.233 59.0602 33.233H55.8012L55.7821 29.243L55.8012 25.253ZM51.7988 36.653H59.4795C64.9113 36.653 66.2645 35.171 66.2645 29.243C66.2645 23.315 64.9113 21.833 59.4795 21.833H51.7988V36.653ZM71.4839 36.653H75.4863V25.253H80.0795V21.833H66.9289V25.253H71.4839V36.653ZM95.902 30.364H91.7091C91.7472 33.328 91.4041 33.651 88.3547 33.651C85.2862 33.651 84.9432 33.214 84.9432 29.243C84.9432 25.272 85.2862 24.835 88.3547 24.835C91.4041 24.835 91.7472 25.158 91.7091 28.084H95.902C95.9401 22.897 94.4345 21.605 88.3547 21.605C82.2749 21.605 80.7502 23.125 80.7502 29.243C80.7502 35.361 82.2749 36.881 88.3547 36.881C94.4345 36.881 95.9401 35.57 95.902 30.364Z" fill="#FE532E"/>
<path d="M110.622 28.711V31.751H113.671C113.595 33.081 112.566 33.651 110.279 33.651C107.286 33.651 106.962 33.214 106.962 29.243C106.962 25.272 107.286 24.835 110.279 24.835C113.271 24.835 113.595 25.063 113.557 27.115H117.75C117.788 22.707 116.301 21.605 110.279 21.605C104.275 21.605 102.77 23.125 102.77 29.243C102.77 35.361 104.275 36.881 110.279 36.881C112.432 36.881 113.652 36.083 114.129 34.278V36.653H117.75V28.711H110.622ZM127.974 21.833H119.474V36.653H123.476V31.428H126.449C128.526 31.428 128.736 31.599 128.736 33.233V36.653H132.929V33.005C132.929 31.105 131.919 30.231 129.937 30.022C132.014 29.737 132.929 28.578 132.929 26.127C132.929 22.688 131.938 21.833 127.974 21.833ZM123.476 28.388V25.063H126.945C128.736 25.063 128.927 25.234 128.927 26.697C128.927 28.217 128.736 28.388 126.945 28.388H123.476ZM141.98 24.835C145.163 24.835 145.506 25.272 145.506 29.243C145.506 33.214 145.163 33.651 141.98 33.651C138.797 33.651 138.454 33.214 138.454 29.243C138.454 25.272 138.797 24.835 141.98 24.835ZM134.261 29.243C134.261 35.361 135.805 36.881 141.98 36.881C148.155 36.881 149.699 35.361 149.699 29.243C149.699 23.125 148.155 21.605 141.98 21.605C135.805 21.605 134.261 23.125 134.261 29.243ZM164.224 30.573V21.833H160.222V30.573C160.222 33.347 159.955 33.651 157.63 33.651C155.304 33.651 155.038 33.347 155.038 30.573V21.833H151.035V30.573C151.035 35.627 152.35 36.881 157.63 36.881C162.909 36.881 164.224 35.627 164.224 30.573ZM165.948 21.833V36.653H169.951V31.808H174.791C178.489 31.618 179.404 30.611 179.404 26.773C179.404 22.821 178.413 21.833 174.448 21.833H165.948ZM169.951 28.388V25.063H173.419C175.211 25.063 175.401 25.234 175.401 26.792C175.401 28.236 175.211 28.388 173.419 28.388H169.951Z" fill="#F1951A"/>
</g>
<defs>
<linearGradient id="paint0_linear_1082_277" x1="29.4053" y1="0.5" x2="29.4053" y2="54.9086" gradientUnits="userSpaceOnUse">
<stop stop-color="#FE552C"/>
<stop offset="1" stop-color="#F1951A"/>
</linearGradient>
<linearGradient id="paint1_linear_1082_277" x1="15.8766" y1="18.1128" x2="15.8766" y2="57.3653" gradientUnits="userSpaceOnUse">
<stop stop-color="#F4891E"/>
<stop offset="1" stop-color="#FE592B"/>
</linearGradient>
<clipPath id="clip0_1082_277">
<rect width="180" height="57" fill="white" transform="translate(0 0.5)"/>
</clipPath>
</defs>
</svg>
